<svg width="40" height="40" viewBox="0 0 40 40" fill="none" xmlns="http://www.w3.org/2000/svg"><path d="M13.644 22.156c-1.289 0.366 -2.134 1.007 -2.691 1.648 0.533 -0.467 1.248 -0.895 2.212 -1.168 0.986 -0.279 1.827 -0.277 2.522 -0.143v-0.543c-0.593 -0.054 -1.272 -0.011 -2.042 0.208m-2.75 -4.568L6.109 18.848s0.087 0.123 0.249 0.288l4.058 -1.069s-0.057 0.741 -0.557 1.404c0.945 -0.715 1.036 -1.883 1.036 -1.883m4.006 11.247C8.166 30.649 4.603 22.844 3.524 18.793c-0.498 -1.87 -0.716 -3.286 -0.774 -4.2a1.55 1.55 0 0 1 0.003 -0.248c-0.349 0.021 -0.517 0.203 -0.483 0.728 0.058 0.913 0.276 2.33 0.774 4.2 1.078 4.05 4.642 11.855 11.377 10.041 1.466 -0.395 2.567 -1.114 3.394 -2.032 -0.762 0.688 -1.716 1.23 -2.915 1.554m1.266 -16.024v0.479h2.642c-0.054 -0.17 -0.109 -0.323 -0.163 -0.479z" fill="#2D4552"/><path d="M19.398 16.758c1.188 0.337 1.816 1.17 2.148 1.907l1.325 0.376s-0.181 -2.58 -2.514 -3.242c-2.183 -0.62 -3.526 1.213 -3.69 1.45 0.635 -0.452 1.562 -0.823 2.731 -0.491m10.544 1.919c-2.185 -0.623 -3.528 1.214 -3.689 1.448 0.636 -0.452 1.562 -0.822 2.73 -0.489 1.186 0.338 1.814 1.17 2.147 1.907l1.327 0.378s-0.184 -2.58 -2.515 -3.244m-1.316 6.802 -11.019 -3.081s0.119 0.605 0.577 1.388l9.278 2.594c0.764 -0.442 1.165 -0.901 1.165 -0.901m-7.639 6.631c-8.725 -2.339 -7.67 -13.456 -6.258 -18.724 0.581 -2.171 1.179 -3.784 1.675 -4.866 -0.296 -0.061 -0.541 0.095 -0.783 0.587 -0.526 1.067 -1.199 2.805 -1.85 5.238 -1.411 5.268 -2.466 16.384 6.258 18.723 4.112 1.102 7.316 -0.573 9.704 -3.202 -2.267 2.053 -5.161 3.204 -8.746 2.244" fill="#2D4552"/><path d="M16.166 26.23v-2.243l-6.233 1.767s0.461 -2.676 3.711 -3.598c0.986 -0.279 1.827 -0.278 2.522 -0.143V12.811h3.121c-0.34 -1.05 -0.668 -1.858 -0.945 -2.42 -0.457 -0.93 -0.925 -0.313 -1.988 0.576 -0.749 0.625 -2.641 1.96 -5.488 2.727 -2.847 0.768 -5.149 0.564 -6.109 0.398 -1.362 -0.235 -2.074 -0.534 -2.007 0.502 0.058 0.913 0.276 2.33 0.774 4.2 1.078 4.051 4.642 11.855 11.377 10.041 1.759 -0.474 3.001 -1.411 3.862 -2.605h-2.597zM6.109 18.848l4.786 -1.261s-0.14 1.841 -1.934 2.314c-1.795 0.472 -2.852 -1.053 -2.852 -1.053" fill="#E2574C"/><path d="M34.179 12.917c-1.244 0.218 -4.229 0.49 -7.917 -0.499 -3.69 -0.988 -6.138 -2.716 -7.108 -3.529 -1.375 -1.152 -1.98 -1.952 -2.575 -0.741 -0.526 1.068 -1.199 2.805 -1.85 5.238 -1.411 5.268 -2.466 16.384 6.258 18.723 8.723 2.337 13.366 -7.818 14.778 -13.086 0.651 -2.432 0.937 -4.274 1.016 -5.461 0.09 -1.345 -0.834 -0.955 -2.601 -0.645m-17.529 4.358s1.375 -2.138 3.707 -1.476c2.333 0.663 2.514 3.242 2.514 3.242zm5.692 9.596c-4.102 -1.202 -4.734 -4.472 -4.734 -4.472l11.019 3.081c0 -0.001 -2.224 2.578 -6.284 1.392m3.896 -6.722s1.373 -2.137 3.705 -1.472c2.331 0.664 2.515 3.244 2.515 3.244z" fill="#2EAD33"/><path d="m13.988 24.604 -4.055 1.149s0.441 -2.509 3.428 -3.504l-2.296 -8.617 -0.198 0.06c-2.847 0.768 -5.149 0.564 -6.109 0.398 -1.362 -0.235 -2.074 -0.534 -2.007 0.502 0.058 0.913 0.276 2.33 0.774 4.2 1.078 4.05 4.642 11.855 11.377 10.041l0.198 -0.062zm-7.88 -5.756 4.786 -1.261s-0.14 1.841 -1.934 2.314c-1.795 0.472 -2.852 -1.053 -2.852 -1.053" fill="#D65348"/><path d="m22.527 26.916 -0.185 -0.045c-4.102 -1.201 -4.734 -4.472 -4.734 -4.472l5.682 1.588 3.008 -11.559 -0.036 -0.01c-3.69 -0.988 -6.138 -2.716 -7.108 -3.529 -1.375 -1.152 -1.98 -1.952 -2.575 -0.741 -0.526 1.068 -1.199 2.805 -1.85 5.238 -1.411 5.268 -2.466 16.384 6.258 18.723l0.179 0.04zm-5.877 -9.641s1.375 -2.138 3.707 -1.476c2.333 0.663 2.514 3.242 2.514 3.242z" fill="#1D8D22"/><path d="m14.195 24.545 -1.087 0.309c0.257 1.448 0.71 2.838 1.42 4.066 0.124 -0.027 0.246 -0.051 0.372 -0.085 0.33 -0.089 0.636 -0.199 0.931 -0.32 -0.794 -1.178 -1.319 -2.536 -1.637 -3.969m-0.425 -10.2c-0.559 2.086 -1.059 5.088 -0.921 8.098 0.246 -0.107 0.507 -0.207 0.796 -0.288l0.201 -0.045c-0.245 -3.216 0.285 -6.494 0.883 -8.723a43.6 43.6 0 0 1 0.455 -1.578 14.1 14.1 0 0 1 -0.806 0.478 41.3 41.3 0 0 0 -0.608 2.058" fill="#C04B41"/></svg>